<?xml version="1.0" encoding="utf-8"?>
<svg data-name="Layer 1" xmlns="http://www.w3.org/2000/svg" width="780.97998" height="639.54999" viewBox="0 276.185 437.913 317.505">
  <path d="M628.92993,724.2251H228.34009A18.85149,18.85149,0,0,1,209.51,705.395V425.05518a18.85149,18.85149,0,0,1,18.83008-18.83008H628.92993a18.754,18.754,0,0,1,18.32666,14.50683h0a18.46714,18.46714,0,0,1,.50342,4.32325V705.395A18.85141,18.85141,0,0,1,628.92993,724.2251Zm-400.58984-312A12.84453,12.84453,0,0,0,215.51,425.05518V705.395a12.84453,12.84453,0,0,0,12.83008,12.83008H628.92993A12.84454,12.84454,0,0,0,641.76,705.395V425.05518a12.45022,12.45022,0,0,0-.33643-2.917l-.00415-.01806a12.93849,12.93849,0,0,0-12.4895-9.895Z" transform="translate(-209.51001 -130.22501)" fill="#3f3d56"/>
  <path d="M644.34009,421.435a15.85755,15.85755,0,0,0-15.41016-12.21H228.34009A15.84631,15.84631,0,0,0,212.51,425.055v280.34a15.84632,15.84632,0,0,0,15.83008,15.83H628.92993A15.84632,15.84632,0,0,0,644.76,705.395V425.055A15.4076,15.4076,0,0,0,644.34009,421.435Z" transform="translate(-209.51001 -130.22501)" fill="#6c63ff"/>
  <path d="M380.68266,432.64533c-4.7405-2.40169-10.44286-3.42255-15.40473-1.52039-4.77391,1.83017-8.26309,6.13421-10.26052,10.84081-1.99695,4.7067-2.69669,9.84477-3.37731,14.91213-.27087,2.01827-.2877,4.56494,1.51806,5.50722a3.51222,3.51222,0,0,0,3.88052-.86318,12.9629,12.9629,0,0,0,2.27211-3.56143,33.78579,33.78579,0,0,1,29.14894-17.80422l4.82666,2.16148C389.38825,438.706,385.42316,435.047,380.68266,432.64533Z" transform="translate(-209.51001 -130.22501)" fill="#ff6582"/>
  <path d="M432.92162,474.74719c-3.74566-6.195-8.18412-12.80944-15.13511-14.8323-8.04974-2.34259-16.31882,2.311-23.33291,6.90322a679.92294,679.92294,0,0,0-60.50883,44.58215l.02116.24048q22.57629-1.55689,45.15254-3.11378c10.87426-.74991,22.1221-1.60325,31.73194-6.74746,3.6466-1.952,7.20125-4.55955,11.33346-4.74124,5.13387-.22573,9.61029,3.35978,13.12813,7.1058,20.80917,22.15893,26.83094,56.04525,50.17674,75.51353A740.8914,740.8914,0,0,0,432.92162,474.74719Z" transform="translate(-209.51001 -130.22501)" fill="#fff"/>
  <path d="M286.59329,624.79133a244.88,244.88,0,0,1,32.53035,3.06817,252.736,252.736,0,0,1,91.38274,33.90921,245.02251,245.02251,0,0,1,26.67746,18.87909q1.55652,1.267,3.09185,2.55957c.6575.553,1.6124-.39247.94977-.94977A247.59115,247.59115,0,0,0,414.698,662.80186a251.81779,251.81779,0,0,0-28.82275-15.77413,255.8071,255.8071,0,0,0-30.66484-11.9423,252.28584,252.28584,0,0,0-31.90183-7.86914A247.67735,247.67735,0,0,0,290.734,623.595q-2.0697-.09114-4.1407-.1468a.672.672,0,0,0,0,1.34318Z" transform="translate(-209.51001 -130.22501)" fill="#fff"/>
  <path d="M284.01728,582.33531c19.51132,1.36481,39.03,2.75214,58.46393,4.996A439.93185,439.93185,0,0,1,400.314,597.5182a265.74453,265.74453,0,0,1,48.895,17.32224,205.80968,205.80968,0,0,1,41.20387,25.66837A159.53541,159.53541,0,0,1,522.844,675.64916q1.68009,2.51709,3.25338,5.10267c.44948.73685,1.6116.06272,1.1598-.67793a157.02,157.02,0,0,0-31.27035-36.6374,200.55838,200.55838,0,0,0-40.45147-26.97343,256.02577,256.02577,0,0,0-47.33719-18.2326,406.03565,406.03565,0,0,0-57.72977-11.269c-19.63286-2.52378-39.3756-4.05369-59.11513-5.45356q-3.66781-.2601-7.33595-.51581c-.86265-.06035-.85888,1.2831,0,1.34318Z" transform="translate(-209.51001 -130.22501)" fill="#fff"/>
  <path d="M282.06728,586.88531c19.51132,1.36481,39.03,2.75214,58.46393,4.996A439.93185,439.93185,0,0,1,398.364,602.0682a265.74453,265.74453,0,0,1,48.895,17.32224,205.80968,205.80968,0,0,1,41.20387,25.66837A159.53541,159.53541,0,0,1,520.894,680.19916q1.68009,2.51709,3.25338,5.10267c.44948.73685,1.6116.06272,1.1598-.67793a157.02,157.02,0,0,0-31.27035-36.6374,200.55838,200.55838,0,0,0-40.45147-26.97343,256.02577,256.02577,0,0,0-47.33719-18.2326,406.03565,406.03565,0,0,0-57.72977-11.269c-19.63286-2.52378-39.3756-4.05369-59.11513-5.45356q-3.66782-.2601-7.336-.51581c-.86265-.06035-.85888,1.2831,0,1.34318Z" transform="translate(-209.51001 -130.22501)" fill="#fff"/>
  <path d="M562.17573,664.93383q-3.45173-4.35861-6.8545-8.75753-27.7234-35.85613-52.11553-74.13453-16.56807-25.99725-31.493-52.99293-7.10547-12.83406-13.82136-25.86962-5.21139-10.10742-10.19015-20.33573c-.94924-1.94762-1.87158-3.90419-2.78933-5.86523-2.16256-4.61158-4.28488-9.24554-6.56374-13.79445-2.59673-5.18466-5.7577-10.62006-10.52617-14.10339a14.36124,14.36124,0,0,0-7.48149-2.87888c-3.88175-.25072-7.46356,1.35215-10.83047,3.10275a348.63987,348.63987,0,0,0-68.55572,47.27545,356.90784,356.90784,0,0,0-55.69735,61.82653c-.49232.70294-1.65645.03135-1.15954-.676q2.93493-4.15047,5.98616-8.21132a358.87987,358.87987,0,0,1,91.62259-85.462q8.91232-5.77566,18.15981-11.00961c3.10719-1.75956,6.22794-3.49674,9.40226-5.12644,3.11178-1.59839,6.416-3.0356,9.97087-3.08933,12.09758-.188,18.36138,13.51238,22.664,22.73108q2.02821,4.35189,4.10562,8.67695,7.85083,16.42033,16.30616,32.54075,5.21826,9.953,10.665,19.78952,16.95075,30.6312,36.033,60.02221,25.27873,38.932,54.11217,75.39264C563.65336,664.65624,562.70872,665.61438,562.17573,664.93383Z" transform="translate(-209.51001 -130.22501)" fill="#fff"/>
  <path d="M493.87658,553.74881l18.024-6.59236,8.949-3.27313a91.51877,91.51877,0,0,1,8.835-3.04288,13.93822,13.93822,0,0,1,7.99675.10189,18.43069,18.43069,0,0,1,6.23727,3.86646,50.61692,50.61692,0,0,1,5.11587,5.46338c1.94836,2.34149,3.86794,4.70753,5.79613,7.06563q11.937,14.59857,23.71792,29.32385,11.78066,14.72505,23.40377,29.5752,11.65152,14.88647,23.14279,29.89741,1.40771,1.83891,2.813,3.67964c.5176.67794,1.68471.00958,1.1598-.67793q-11.576-15.16189-23.31346-30.19968-11.76628-15.07372-23.69516-30.01958-11.92866-14.94556-24.01852-29.7615-3.012-3.6911-6.03384-7.37406c-1.69939-2.07114-3.37961-4.16463-5.24354-6.09236-3.42139-3.53849-7.696-6.66558-12.81272-6.75042a24.72932,24.72932,0,0,0-8.71493,1.91591c-3.01323,1.09008-6.01924,2.20056-9.02861,3.30125L498.057,550.794l-4.53751,1.65961c-.80524.29452-.45739,1.59309.35707,1.2952Z" transform="translate(-209.51001 -130.22501)" fill="#fff"/>
  <path d="M404.2138,443.32628l-1.20549.59221a32.464,32.464,0,0,0-61.5112,11.70232,32.13068,32.13068,0,0,0,5.30542,20.52492l-1.119.74319a33.46137,33.46137,0,0,1-5.52543-21.375,33.80711,33.80711,0,0,1,64.05566-12.18768Z" transform="translate(-209.51001 -130.22501)" fill="#ff6582"/>
  <path d="M316.0526,479.42261a29.09854,29.09854,0,0,0-29.30613,2.09579,417.98883,417.98883,0,0,1,47.55522,11.09916C327.81455,488.81593,322.74005,482.85964,316.0526,479.42261Z" transform="translate(-209.51001 -130.22501)" fill="#fff"/>
  <path d="M286.65632,481.5022l-1.76331,1.43325c.59644-.50165,1.21649-.972,1.85346-1.41705Z" transform="translate(-209.51001 -130.22501)" fill="#fff"/>
  <path d="M543.23991,553.81467c-1.77424-2.15971-3.69249-4.421-6.3463-5.29828l-2.47766.09772a281.0397,281.0397,0,0,0,74.85487,85.57673Z" transform="translate(-209.51001 -130.22501)" fill="#fff"/>
  <path d="M339.75864,489.8146c-.70285-.78353-1.40133-1.567-2.10878-2.35057-5.57865-6.16968-11.56459-12.26771-19.22534-15.80476a27.89222,27.89222,0,0,0-11.68571-2.70874,33.34859,33.34859,0,0,0-12.13321,2.64607c-1.82676.7298-3.6133,1.55808-5.37272,2.44009-2.0104,1.01187-3.98494,2.0909-5.9503,3.17888q-5.53406,3.06244-10.92449,6.39352-10.72542,6.62858-20.77905,14.269-5.2117,3.96238-10.2083,8.18445-4.64735,3.92206-9.10668,8.0546c-.63574.58652-1.585-.36266-.94924-.94918.78353-.7298,1.576-1.45511,2.36849-2.17146q3.358-3.03561,6.82346-5.95479,6.31944-5.33242,12.96614-10.25292,10.33585-7.65614,21.38331-14.27352,5.52062-3.30421,11.19317-6.33086c1.14183-.6089,2.297-1.20439,3.4655-1.76853a55.24538,55.24538,0,0,1,8.23813-3.35346,29.30667,29.30667,0,0,1,12.44233-1.22229,32.394,32.394,0,0,1,11.47977,3.97133c7.52172,4.20416,13.3555,10.70513,19.03275,17.04944C341.28108,489.50566,340.33622,490.45932,339.75864,489.8146Z" transform="translate(-209.51001 -130.22501)" fill="#fff"/>
  <polygon points="35.666 373.557 33.716 373.557 33.716 309.566 102.216 309.566 102.216 311.516 35.666 311.516 35.666 373.557" fill="#2f2e41"/>
  <polygon points="404.534 373.557 402.584 373.557 402.584 311.516 336.034 311.516 336.034 309.566 404.534 309.566 404.534 373.557" fill="#2f2e41"/>
  <polygon points="404.534 560.434 336.034 560.434 336.034 558.484 402.584 558.484 402.584 496.443 404.534 496.443 404.534 560.434" fill="#2f2e41"/>
  <polygon points="102.216 560.434 33.716 560.434 33.716 496.443 35.666 496.443 35.666 558.484 102.216 558.484 102.216 560.434" fill="#2f2e41"/>
</svg>